<svg width="61" height="61" viewBox="0 0 61 61" fill="none" xmlns="http://www.w3.org/2000/svg">
<path d="M59.4907 30.2204C59.4907 46.3577 46.3979 59.4409 30.2453 59.4409C14.0928 59.4409 1 46.3577 1 30.2204C1 14.0832 14.0928 1 30.2453 1C46.3979 1 59.4907 14.0832 59.4907 30.2204Z" fill="black" stroke="black" stroke-width="2"/>
<path d="M15.9688 35V27H16.9375V34.1406H20.6563V35H15.9688ZM28.5947 31C28.5947 31.8437 28.4424 32.5729 28.1377 33.1875C27.833 33.8021 27.415 34.276 26.8838 34.6094C26.3525 34.9427 25.7458 35.1094 25.0635 35.1094C24.3812 35.1094 23.7744 34.9427 23.2432 34.6094C22.7119 34.276 22.2939 33.8021 21.9893 33.1875C21.6846 32.5729 21.5322 31.8437 21.5322 31C21.5322 30.1562 21.6846 29.4271 21.9893 28.8125C22.2939 28.1979 22.7119 27.724 23.2432 27.3906C23.7744 27.0573 24.3812 26.8906 25.0635 26.8906C25.7458 26.8906 26.3525 27.0573 26.8838 27.3906C27.415 27.724 27.833 28.1979 28.1377 28.8125C28.4424 29.4271 28.5947 30.1562 28.5947 31ZM27.6572 31C27.6572 30.3073 27.5413 29.7227 27.3096 29.2461C27.0804 28.7695 26.7692 28.4089 26.376 28.1641C25.9854 27.9193 25.5479 27.7969 25.0635 27.7969C24.5791 27.7969 24.1403 27.9193 23.7471 28.1641C23.3564 28.4089 23.0452 28.7695 22.8135 29.2461C22.5843 29.7227 22.4697 30.3073 22.4697 31C22.4697 31.6927 22.5843 32.2773 22.8135 32.7539C23.0452 33.2305 23.3564 33.5911 23.7471 33.8359C24.1403 34.0807 24.5791 34.2031 25.0635 34.2031C25.5479 34.2031 25.9854 34.0807 26.376 33.8359C26.7692 33.5911 27.0804 33.2305 27.3096 32.7539C27.5413 32.2773 27.6572 31.6927 27.6572 31ZM35.6924 29.5C35.6064 29.237 35.4932 29.0013 35.3525 28.793C35.2145 28.582 35.0492 28.4023 34.8564 28.2539C34.6663 28.1055 34.4502 27.9922 34.208 27.9141C33.9658 27.8359 33.7002 27.7969 33.4111 27.7969C32.9372 27.7969 32.5062 27.9193 32.1182 28.1641C31.7301 28.4089 31.4215 28.7695 31.1924 29.2461C30.9632 29.7227 30.8486 30.3073 30.8486 31C30.8486 31.6927 30.9645 32.2773 31.1963 32.7539C31.4281 33.2305 31.7419 33.5911 32.1377 33.8359C32.5335 34.0807 32.9788 34.2031 33.4736 34.2031C33.932 34.2031 34.3356 34.1055 34.6846 33.9102C35.0361 33.7122 35.3096 33.4336 35.5049 33.0742C35.7028 32.7122 35.8018 32.2865 35.8018 31.7969L36.0986 31.8594H33.6924V31H36.7393V31.8594C36.7393 32.5182 36.5986 33.0911 36.3174 33.5781C36.0387 34.0651 35.6533 34.4427 35.1611 34.7109C34.6715 34.9766 34.109 35.1094 33.4736 35.1094C32.7653 35.1094 32.1429 34.9427 31.6064 34.6094C31.0726 34.276 30.6559 33.8021 30.3564 33.1875C30.0596 32.5729 29.9111 31.8437 29.9111 31C29.9111 30.3672 29.9958 29.7982 30.165 29.293C30.3369 28.7852 30.5791 28.3529 30.8916 27.9961C31.2041 27.6393 31.5739 27.3659 32.001 27.1758C32.4281 26.9857 32.8981 26.8906 33.4111 26.8906C33.833 26.8906 34.2262 26.9544 34.5908 27.082C34.958 27.207 35.2848 27.3854 35.5713 27.6172C35.8604 27.8464 36.1012 28.1211 36.2939 28.4414C36.4867 28.7591 36.6195 29.112 36.6924 29.5H35.6924ZM45.1484 31C45.1484 31.8437 44.9961 32.5729 44.6914 33.1875C44.3867 33.8021 43.9688 34.276 43.4375 34.6094C42.9063 34.9427 42.2995 35.1094 41.6172 35.1094C40.9349 35.1094 40.3281 34.9427 39.7969 34.6094C39.2656 34.276 38.8477 33.8021 38.543 33.1875C38.2383 32.5729 38.0859 31.8437 38.0859 31C38.0859 30.1562 38.2383 29.4271 38.543 28.8125C38.8477 28.1979 39.2656 27.724 39.7969 27.3906C40.3281 27.0573 40.9349 26.8906 41.6172 26.8906C42.2995 26.8906 42.9063 27.0573 43.4375 27.3906C43.9688 27.724 44.3867 28.1979 44.6914 28.8125C44.9961 29.4271 45.1484 30.1562 45.1484 31ZM44.2109 31C44.2109 30.3073 44.0951 29.7227 43.8633 29.2461C43.6341 28.7695 43.3229 28.4089 42.9297 28.1641C42.5391 27.9193 42.1016 27.7969 41.6172 27.7969C41.1328 27.7969 40.694 27.9193 40.3008 28.1641C39.9102 28.4089 39.599 28.7695 39.3672 29.2461C39.138 29.7227 39.0234 30.3073 39.0234 31C39.0234 31.6927 39.138 32.2773 39.3672 32.7539C39.599 33.2305 39.9102 33.5911 40.3008 33.8359C40.694 34.0807 41.1328 34.2031 41.6172 34.2031C42.1016 34.2031 42.5391 34.0807 42.9297 33.8359C43.3229 33.5911 43.6341 33.2305 43.8633 32.7539C44.0951 32.2773 44.2109 31.6927 44.2109 31Z" fill="white"/>
</svg>
